{"asset":{"version":"2.0","generator":"Blockbench 4.6.4 glTF exporter"},"scenes":[{"nodes":[18],"name":"blockbench_export"}],"scene":0,"nodes":[{"translation":[-0.1875,-0.125,0.25],"name":"cube","mesh":0},{"translation":[-0.1875,-0.125,0.25],"name":"cube","mesh":1},{"translation":[-0.1875,-0.875,0.25],"name":"cube","mesh":2},{"translation":[-0.1875,-0.875,0.25],"name":"cube","mesh":3},{"translation":[0,-0.875,0.375],"name":"cube","mesh":4},{"translation":[0,-0.875,0.375],"name":"cube","mesh":5},{"translation":[0,-0.875,0.375],"name":"cube","mesh":6},{"translation":[-0.1875,0,-0.125],"name":"head","children":[4,5,6]},{"translation":[-0.1875,0,0.1875],"name":"78f623ef-aa47-e98c-b975-f32b30d7c42e"},{"translation":[-0.1875,0,-0.125],"name":"cube","mesh":7},{"translation":[-0.1875,0,-0.125],"name":"cube","mesh":8},{"translation":[-0.1875,0,-0.125],"name":"cube","mesh":9},{"name":"wing","children":[8,9,10,11]},{"translation":[-0.8125,0,-0.1875],"name":"cube","mesh":10},{"translation":[-0.8125,0,-0.1875],"name":"cube","mesh":11},{"translation":[-0.8125,0,-0.1875],"name":"cube","mesh":12},{"translation":[-0.375,0,0.0625],"name":"wing2","children":[13,14,15]},{"translation":[0.1875,0.875,-0.25],"name":"body","children":[0,1,2,3,7,12,16]},{"children":[17]}],"bufferViews":[{"buffer":0,"byteOffset":0,"byteLength":288,"target":34962,"byteStride":12},{"buffer":0,"byteOffset":288,"byteLength":288,"target":34962,"byteStride":12},{"buffer":0,"byteOffset":576,"byteLength":192,"target":34962,"byteStride":8},{"buffer":0,"byteOffset":768,"byteLength":72,"target":34963},{"buffer":0,"byteOffset":840,"byteLength":288,"target":34962,"byteStride":12},{"buffer":0,"byteOffset":1128,"byteLength":288,"target":34962,"byteStride":12},{"buffer":0,"byteOffset":1416,"byteLength":192,"target":34962,"byteStride":8},{"buffer":0,"byteOffset":1608,"byteLength":72,"target":34963},{"buffer":0,"byteOffset":1680,"byteLength":288,"target":34962,"byteStride":12},{"buffer":0,"byteOffset":1968,"byteLength":288,"target":34962,"byteStride":12},{"buffer":0,"byteOffset":2256,"byteLength":192,"target":34962,"byteStride":8},{"buffer":0,"byteOffset":2448,"byteLength":72,"target":34963},{"buffer":0,"byteOffset":2520,"byteLength":288,"target":34962,"byteStride":12},{"buffer":0,"byteOffset":2808,"byteLength":288,"target":34962,"byteStride":12},{"buffer":0,"byteOffset":3096,"byteLength":192,"target":34962,"byteStride":8},{"buffer":0,"byteOffset":3288,"byteLength":72,"target":34963},{"buffer":0,"byteOffset":3360,"byteLength":288,"target":34962,"byteStride":12},{"buffer":0,"byteOffset":3648,"byteLength":288,"target":34962,"byteStride":12},{"buffer":0,"byteOffset":3936,"byteLength":192,"target":34962,"byteStride":8},{"buffer":0,"byteOffset":4128,"byteLength":72,"target":34963},{"buffer":0,"byteOffset":4200,"byteLength":288,"target":34962,"byteStride":12},{"buffer":0,"byteOffset":4488,"byteLength":288,"target":34962,"byteStride":12},{"buffer":0,"byteOffset":4776,"byteLength":192,"target":34962,"byteStride":8},{"buffer":0,"byteOffset":4968,"byteLength":72,"target":34963},{"buffer":0,"byteOffset":5040,"byteLength":288,"target":34962,"byteStride":12},{"buffer":0,"byteOffset":5328,"byteLength":288,"target":34962,"byteStride":12},{"buffer":0,"byteOffset":5616,"byteLength":192,"target":34962,"byteStride":8},{"buffer":0,"byteOffset":5808,"byteLength":72,"target":34963},{"buffer":0,"byteOffset":5880,"byteLength":288,"target":34962,"byteStride":12},{"buffer":0,"byteOffset":6168,"byteLength":288,"target":34962,"byteStride":12},{"buffer":0,"byteOffset":6456,"byteLength":192,"target":34962,"byteStride":8},{"buffer":0,"byteOffset":6648,"byteLength":72,"target":34963},{"buffer":0,"byteOffset":6720,"byteLength":288,"target":34962,"byteStride":12},{"buffer":0,"byteOffset":7008,"byteLength":288,"target":34962,"byteStride":12},{"buffer":0,"byteOffset":7296,"byteLength":192,"target":34962,"byteStride":8},{"buffer":0,"byteOffset":7488,"byteLength":72,"target":34963},{"buffer":0,"byteOffset":7560,"byteLength":288,"target":34962,"byteStride":12},{"buffer":0,"byteOffset":7848,"byteLength":288,"target":34962,"byteStride":12},{"buffer":0,"byteOffset":8136,"byteLength":192,"target":34962,"byteStride":8},{"buffer":0,"byteOffset":8328,"byteLength":72,"target":34963},{"buffer":0,"byteOffset":8400,"byteLength":288,"target":34962,"byteStride":12},{"buffer":0,"byteOffset":8688,"byteLength":288,"target":34962,"byteStride":12},{"buffer":0,"byteOffset":8976,"byteLength":192,"target":34962,"byteStride":8},{"buffer":0,"byteOffset":9168,"byteLength":72,"target":34963},{"buffer":0,"byteOffset":9240,"byteLength":288,"target":34962,"byteStride":12},{"buffer":0,"byteOffset":9528,"byteLength":288,"target":34962,"byteStride":12},{"buffer":0,"byteOffset":9816,"byteLength":192,"target":34962,"byteStride":8},{"buffer":0,"byteOffset":10008,"byteLength":72,"target":34963},{"buffer":0,"byteOffset":10080,"byteLength":288,"target":34962,"byteStride":12},{"buffer":0,"byteOffset":10368,"byteLength":288,"target":34962,"byteStride":12},{"buffer":0,"byteOffset":10656,"byteLength":192,"target":34962,"byteStride":8},{"buffer":0,"byteOffset":10848,"byteLength":72,"target":34963},{"buffer":0,"byteOffset":10920,"byteLength":12},{"buffer":0,"byteOffset":10932,"byteLength":36},{"buffer":0,"byteOffset":10968,"byteLength":12},{"buffer":0,"byteOffset":10980,"byteLength":48},{"buffer":0,"byteOffset":11028,"byteLength":12},{"buffer":0,"byteOffset":11040,"byteLength":48},{"buffer":0,"byteOffset":11088,"byteLength":12},{"buffer":0,"byteOffset":11100,"byteLength":36},{"buffer":0,"byteOffset":11136,"byteLength":28},{"buffer":0,"byteOffset":11164,"byteLength":112},{"buffer":0,"byteOffset":11276,"byteLength":20},{"buffer":0,"byteOffset":11296,"byteLength":60},{"buffer":0,"byteOffset":11356,"byteLength":4},{"buffer":0,"byteOffset":11360,"byteLength":16},{"buffer":0,"byteOffset":11376,"byteLength":4},{"buffer":0,"byteOffset":11380,"byteLength":16},{"buffer":0,"byteOffset":11396,"byteLength":4},{"buffer":0,"byteOffset":11400,"byteLength":16},{"buffer":0,"byteOffset":11416,"byteLength":4},{"buffer":0,"byteOffset":11420,"byteLength":12},{"buffer":0,"byteOffset":11432,"byteLength":8},{"buffer":0,"byteOffset":11440,"byteLength":32},{"buffer":0,"byteOffset":11472,"byteLength":8},{"buffer":0,"byteOffset":11480,"byteLength":24},{"buffer":0,"byteOffset":11504,"byteLength":24},{"buffer":0,"byteOffset":11528,"byteLength":96},{"buffer":0,"byteOffset":11624,"byteLength":24},{"buffer":0,"byteOffset":11648,"byteLength":96},{"buffer":0,"byteOffset":11744,"byteLength":20},{"buffer":0,"byteOffset":11764,"byteLength":80},{"buffer":0,"byteOffset":11844,"byteLength":16},{"buffer":0,"byteOffset":11860,"byteLength":48}],"buffers":[{"byteLength":11908,"uri":"data:application/octet-stream;base64,"}],"accessors":[{"bufferView":0,"componentType":5126,"count":24,"max":[0.1875,0.0625,0.3125],"min":[-0.1875,-0.125,-0.1875],"type":"VEC3"},{"bufferView":1,"componentType":5126,"count":24,"max":[1,1,1],"min":[-1,-1,-1],"type":"VEC3"},{"bufferView":2,"componentType":5126,"count":24,"max":[0.515625,0.859375],"min":[0,0.53125],"type":"VEC2"},{"bufferView":3,"componentType":5123,"count":36,"max":[23],"min":[0],"type":"SCALAR"},{"bufferView":4,"componentType":5126,"count":24,"max":[0.1875,0.1875,0.0625],"min":[-0.1875,-0.0625,-0.375],"type":"VEC3"},{"bufferView":5,"componentType":5126,"count":24,"max":[1,1,1],"min":[-1,-1,-1],"type":"VEC3"},{"bufferView":6,"componentType":5126,"count":24,"max":[0.46875,0.875],"min":[0.0625,0.625],"type":"VEC2"},{"bufferView":7,"componentType":5123,"count":36,"max":[23],"min":[0],"type":"SCALAR"},{"bufferView":8,"componentType":5126,"count":24,"max":[-0.0625,0.75,0.4375],"min":[-0.1875,0.625,0.3125],"type":"VEC3"},{"bufferView":9,"componentType":5126,"count":24,"max":[1,1,1],"min":[-1,-1,-1],"type":"VEC3"},{"bufferView":10,"componentType":5126,"count":24,"max":[0.578125,0.578125],"min":[0.046875,0.40625],"type":"VEC2"},{"bufferView":11,"componentType":5123,"count":36,"max":[23],"min":[0],"type":"SCALAR"},{"bufferView":12,"componentType":5126,"count":24,"max":[0.1875,0.75,0.4375],"min":[0.0625,0.625,0.3125],"type":"VEC3"},{"bufferView":13,"componentType":5126,"count":24,"max":[1,1,1],"min":[-1,-1,-1],"type":"VEC3"},{"bufferView":14,"componentType":5126,"count":24,"max":[0.328125,0.4375],"min":[0.140625,0.40625],"type":"VEC2"},{"bufferView":15,"componentType":5123,"count":36,"max":[23],"min":[0],"type":"SCALAR"},{"bufferView":16,"componentType":5126,"count":24,"max":[0.125,1.1875,-0.3125],"min":[-0.125,1.0625,-0.5625],"type":"VEC3"},{"bufferView":17,"componentType":5126,"count":24,"max":[1,1,1],"min":[-1,-1,-1],"type":"VEC3"},{"bufferView":18,"componentType":5126,"count":24,"max":[0.578125,1],"min":[0,0.453125],"type":"VEC2"},{"bufferView":19,"componentType":5123,"count":36,"max":[23],"min":[0],"type":"SCALAR"},{"bufferView":20,"componentType":5126,"count":24,"max":[0.125,0.9375,-0.375],"min":[-0.125,0.8125,-0.875],"type":"VEC3"},{"bufferView":21,"componentType":5126,"count":24,"max":[1,1,1],"min":[-1,-1,-1],"type":"VEC3"},{"bufferView":22,"componentType":5126,"count":24,"max":[0.59375,1],"min":[0,0.46875],"type":"VEC2"},{"bufferView":23,"componentType":5123,"count":36,"max":[23],"min":[0],"type":"SCALAR"},{"bufferView":24,"componentType":5126,"count":24,"max":[0.125,1.0625,-0.25],"min":[-0.125,0.9375,-0.75],"type":"VEC3"},{"bufferView":25,"componentType":5126,"count":24,"max":[1,1,1],"min":[-1,-1,-1],"type":"VEC3"},{"bufferView":26,"componentType":5126,"count":24,"max":[0.59375,1],"min":[0,0.4375],"type":"VEC2"},{"bufferView":27,"componentType":5123,"count":36,"max":[23],"min":[0],"type":"SCALAR"},{"bufferView":28,"componentType":5126,"count":24,"max":[0.5625,0,0.5625],"min":[0.1875,-0.125,0.375],"type":"VEC3"},{"bufferView":29,"componentType":5126,"count":24,"max":[1,1,1],"min":[-1,-1,-1],"type":"VEC3"},{"bufferView":30,"componentType":5126,"count":24,"max":[0.578125,0.9375],"min":[0.125,0.4375],"type":"VEC2"},{"bufferView":31,"componentType":5123,"count":36,"max":[23],"min":[0],"type":"SCALAR"},{"bufferView":32,"componentType":5126,"count":24,"max":[1,0.0625,0.1875],"min":[0.8125,-0.0625,0],"type":"VEC3"},{"bufferView":33,"componentType":5126,"count":24,"max":[1,1,1],"min":[-1,-1,-1],"type":"VEC3"},{"bufferView":34,"componentType":5126,"count":24,"max":[0.46875,0.5],"min":[0.171875,0.4375],"type":"VEC2"},{"bufferView":35,"componentType":5123,"count":36,"max":[23],"min":[0],"type":"SCALAR"},{"bufferView":36,"componentType":5126,"count":24,"max":[0.8125,0.0625,0.375],"min":[0.1875,-0.0625,0],"type":"VEC3"},{"bufferView":37,"componentType":5126,"count":24,"max":[1,1,1],"min":[-1,-1,-1],"type":"VEC3"},{"bufferView":38,"componentType":5126,"count":24,"max":[0.5625,1],"min":[0,0.484375],"type":"VEC2"},{"bufferView":39,"componentType":5123,"count":36,"max":[23],"min":[0],"type":"SCALAR"},{"bufferView":40,"componentType":5126,"count":24,"max":[0.8125,0,0.5625],"min":[0.4375,-0.125,0.375],"type":"VEC3"},{"bufferView":41,"componentType":5126,"count":24,"max":[1,1,1],"min":[-1,-1,-1],"type":"VEC3"},{"bufferView":42,"componentType":5126,"count":24,"max":[0.578125,1],"min":[0.09375,0.46875],"type":"VEC2"},{"bufferView":43,"componentType":5123,"count":36,"max":[23],"min":[0],"type":"SCALAR"},{"bufferView":44,"componentType":5126,"count":24,"max":[0.1875,0.0625,0.1875],"min":[0,-0.0625,0],"type":"VEC3"},{"bufferView":45,"componentType":5126,"count":24,"max":[1,1,1],"min":[-1,-1,-1],"type":"VEC3"},{"bufferView":46,"componentType":5126,"count":24,"max":[0.5625,0.578125],"min":[0,0.421875],"type":"VEC2"},{"bufferView":47,"componentType":5123,"count":36,"max":[23],"min":[0],"type":"SCALAR"},{"bufferView":48,"componentType":5126,"count":24,"max":[0.8125,0.0625,0.375],"min":[0.1875,-0.0625,0],"type":"VEC3"},{"bufferView":49,"componentType":5126,"count":24,"max":[1,1,1],"min":[-1,-1,-1],"type":"VEC3"},{"bufferView":50,"componentType":5126,"count":24,"max":[0.59375,1],"min":[0.0625,0.46875],"type":"VEC2"},{"bufferView":51,"componentType":5123,"count":36,"max":[23],"min":[0],"type":"SCALAR"},{"bufferView":52,"componentType":5126,"count":3,"max":[0.4583333432674408],"min":[0],"type":"SCALAR"},{"bufferView":53,"componentType":5126,"count":3,"max":[-0.1875,0,-0.125],"min":[-0.1875,-0.0625,-0.125],"type":"VEC3"},{"bufferView":54,"componentType":5126,"count":3,"max":[0.4166666567325592],"min":[0],"type":"SCALAR"},{"bufferView":55,"componentType":5126,"count":3,"max":[0,0,0.19509032368659973,1],"min":[0,0,-0.13052618503570557,0.9807852506637573],"type":"VEC4"},{"bufferView":56,"componentType":5126,"count":3,"max":[0.4583333432674408],"min":[0],"type":"SCALAR"},{"bufferView":57,"componentType":5126,"count":3,"max":[0,0,0.13052618503570557,1],"min":[0,0,-0.13052618503570557,0.9914448857307434],"type":"VEC4"},{"bufferView":58,"componentType":5126,"count":3,"max":[0.4583333432674408],"min":[0],"type":"SCALAR"},{"bufferView":59,"componentType":5126,"count":3,"max":[0.1875,0.9375,-0.25],"min":[0.1875,0.8125,-0.25],"type":"VEC3"},{"bufferView":60,"componentType":5126,"count":7,"max":[1.1666666269302368],"min":[0],"type":"SCALAR"},{"bufferView":61,"componentType":5126,"count":7,"max":[-0.6830126643180847,0.1830126941204071,0.12278780341148376,0.7071067690849304],"min":[-0.7071067690849304,-0.12278780341148376,-0.1830127090215683,0.6830127239227295],"type":"VEC4"},{"bufferView":62,"componentType":5126,"count":5,"max":[1.7916666269302368],"min":[0],"type":"SCALAR"},{"bufferView":63,"componentType":5126,"count":5,"max":[-0.1875,-0.125,0],"min":[-0.1875,-0.125,-0.1875],"type":"VEC3"},{"bufferView":64,"componentType":5126,"count":1,"max":[0],"min":[0],"type":"SCALAR"},{"bufferView":65,"componentType":5126,"count":1,"max":[0,0,-0.7798844575881958,0.6259234547615051],"min":[0,0,-0.7798844575881958,0.6259234547615051],"type":"VEC4"},{"bufferView":66,"componentType":5126,"count":1,"max":[0],"min":[0],"type":"SCALAR"},{"bufferView":67,"componentType":5126,"count":1,"max":[0,0,0.751839816570282,0.659345805644989],"min":[0,0,0.751839816570282,0.659345805644989],"type":"VEC4"},{"bufferView":68,"componentType":5126,"count":1,"max":[0],"min":[0],"type":"SCALAR"},{"bufferView":69,"componentType":5126,"count":1,"max":[0.6915130615234375,0,0,0.7223639488220215],"min":[0.6915130615234375,0,0,0.7223639488220215],"type":"VEC4"},{"bufferView":70,"componentType":5126,"count":1,"max":[0],"min":[0],"type":"SCALAR"},{"bufferView":71,"componentType":5126,"count":1,"max":[0.1875,0.625,0.1875],"min":[0.1875,0.625,0.1875],"type":"VEC3"},{"bufferView":72,"componentType":5126,"count":2,"max":[0.4166666567325592],"min":[0],"type":"SCALAR"},{"bufferView":73,"componentType":5126,"count":2,"max":[0,0,0,1],"min":[-0.7071067690849304,0,0,0.7071067690849304],"type":"VEC4"},{"bufferView":74,"componentType":5126,"count":2,"max":[0.4166666567325592],"min":[0],"type":"SCALAR"},{"bufferView":75,"componentType":5126,"count":2,"max":[-0.1875,0,0],"min":[-0.1875,-0.125,-0.125],"type":"VEC3"},{"bufferView":76,"componentType":5126,"count":6,"max":[0.9166666865348816],"min":[0],"type":"SCALAR"},{"bufferView":77,"componentType":5126,"count":6,"max":[0,0,0.2164396196603775,0.9914448857307434],"min":[0,0,-0.7798844575881958,0.6259234547615051],"type":"VEC4"},{"bufferView":78,"componentType":5126,"count":6,"max":[0.9166666865348816],"min":[0],"type":"SCALAR"},{"bufferView":79,"componentType":5126,"count":6,"max":[0,0,0.751839816570282,0.9883615374565125],"min":[0,0,-0.15212339162826538,0.659345805644989],"type":"VEC4"},{"bufferView":80,"componentType":5126,"count":5,"max":[1],"min":[0],"type":"SCALAR"},{"bufferView":81,"componentType":5126,"count":5,"max":[0.6915130615234375,0,0,0.9998937845230103],"min":[0.014572983607649803,0,0,0.7223639488220215],"type":"VEC4"},{"bufferView":82,"componentType":5126,"count":4,"max":[0.9166666865348816],"min":[0],"type":"SCALAR"},{"bufferView":83,"componentType":5126,"count":4,"max":[0.1875,1.25,0.1875],"min":[0.1875,0.625,-0.625],"type":"VEC3"}],"materials":[{"pbrMetallicRoughness":{"metallicFactor":0,"roughnessFactor":1,"baseColorTexture":{"index":0}},"alphaMode":"MASK","alphaCutoff":0.05,"doubleSided":true}],"textures":[{"sampler":0,"source":0,"name":"pteranodon"}],"samplers":[{"magFilter":9728,"minFilter":9728,"wrapS":33071,"wrapT":33071}],"images":[{"mimeType":"image/png","uri":"data:image/png;base64,"}],"meshes":[{"primitives":[{"mode":4,"attributes":{"POSITION":0,"NORMAL":1,"TEXCOORD_0":2},"indices":3,"material":0}]},{"primitives":[{"mode":4,"attributes":{"POSITION":4,"NORMAL":5,"TEXCOORD_0":6},"indices":7,"material":0}]},{"primitives":[{"mode":4,"attributes":{"POSITION":8,"NORMAL":9,"TEXCOORD_0":10},"indices":11,"material":0}]},{"primitives":[{"mode":4,"attributes":{"POSITION":12,"NORMAL":13,"TEXCOORD_0":14},"indices":15,"material":0}]},{"primitives":[{"mode":4,"attributes":{"POSITION":16,"NORMAL":17,"TEXCOORD_0":18},"indices":19,"material":0}]},{"primitives":[{"mode":4,"attributes":{"POSITION":20,"NORMAL":21,"TEXCOORD_0":22},"indices":23,"material":0}]},{"primitives":[{"mode":4,"attributes":{"POSITION":24,"NORMAL":25,"TEXCOORD_0":26},"indices":27,"material":0}]},{"primitives":[{"mode":4,"attributes":{"POSITION":28,"NORMAL":29,"TEXCOORD_0":30},"indices":31,"material":0}]},{"primitives":[{"mode":4,"attributes":{"POSITION":32,"NORMAL":33,"TEXCOORD_0":34},"indices":35,"material":0}]},{"primitives":[{"mode":4,"attributes":{"POSITION":36,"NORMAL":37,"TEXCOORD_0":38},"indices":39,"material":0}]},{"primitives":[{"mode":4,"attributes":{"POSITION":40,"NORMAL":41,"TEXCOORD_0":42},"indices":43,"material":0}]},{"primitives":[{"mode":4,"attributes":{"POSITION":44,"NORMAL":45,"TEXCOORD_0":46},"indices":47,"material":0}]},{"primitives":[{"mode":4,"attributes":{"POSITION":48,"NORMAL":49,"TEXCOORD_0":50},"indices":51,"material":0}]}],"animations":[{"name":"pteranodon flying","samplers":[{"input":52,"output":53,"interpolation":"LINEAR"},{"input":54,"output":55,"interpolation":"LINEAR"},{"input":56,"output":57,"interpolation":"LINEAR"},{"input":58,"output":59,"interpolation":"LINEAR"}],"channels":[{"sampler":0,"target":{"node":7,"path":"translation"}},{"sampler":1,"target":{"node":12,"path":"rotation"}},{"sampler":2,"target":{"node":16,"path":"rotation"}},{"sampler":3,"target":{"node":17,"path":"translation"}}]},{"name":"pteranodon idle","samplers":[{"input":60,"output":61,"interpolation":"LINEAR"},{"input":62,"output":63,"interpolation":"LINEAR"},{"input":64,"output":65,"interpolation":"LINEAR"},{"input":66,"output":67,"interpolation":"LINEAR"},{"input":68,"output":69,"interpolation":"LINEAR"},{"input":70,"output":71,"interpolation":"LINEAR"}],"channels":[{"sampler":0,"target":{"node":7,"path":"rotation"}},{"sampler":1,"target":{"node":7,"path":"translation"}},{"sampler":2,"target":{"node":12,"path":"rotation"}},{"sampler":3,"target":{"node":16,"path":"rotation"}},{"sampler":4,"target":{"node":17,"path":"rotation"}},{"sampler":5,"target":{"node":17,"path":"translation"}}]},{"name":"pteranodon take off","samplers":[{"input":72,"output":73,"interpolation":"LINEAR"},{"input":74,"output":75,"interpolation":"LINEAR"},{"input":76,"output":77,"interpolation":"LINEAR"},{"input":78,"output":79,"interpolation":"LINEAR"},{"input":80,"output":81,"interpolation":"LINEAR"},{"input":82,"output":83,"interpolation":"LINEAR"}],"channels":[{"sampler":0,"target":{"node":7,"path":"rotation"}},{"sampler":1,"target":{"node":7,"path":"translation"}},{"sampler":2,"target":{"node":12,"path":"rotation"}},{"sampler":3,"target":{"node":16,"path":"rotation"}},{"sampler":4,"target":{"node":17,"path":"rotation"}},{"sampler":5,"target":{"node":17,"path":"translation"}}]}]}